<?xml version="1.0" encoding="utf-8"?>
<!-- Generator: Adobe Illustrator 24.0.2, SVG Export Plug-In . SVG Version: 6.00 Build 0)  -->
<svg version="1.1" id="Capa_1" xmlns="http://www.w3.org/2000/svg" xmlns:xlink="http://www.w3.org/1999/xlink" x="0px" y="0px"
	 viewBox="0 0 24 24" style="enable-background:new 0 0 24 24;" xml:space="preserve">
<style type="text/css">
	.st0{fill:#FFFFFF;}
</style>
<path class="st0" d="M0.2,12c0-0.4,0.2-0.7,0.5-0.9l5.9-3.9c0.1-0.1,0.2-0.1,0.3-0.1c0.3,0,0.5,0.1,0.7,0.3C7.9,7.7,8,8,8,8.3
	c0,0.3-0.1,0.5-0.3,0.7L3,12l4.7,3.1C7.9,15.2,8,15.4,8,15.8c0,0.3-0.1,0.6-0.3,0.8c-0.2,0.2-0.5,0.3-0.7,0.3c-0.1,0-0.3,0-0.3-0.1
	l-5.9-3.9C0.4,12.7,0.2,12.4,0.2,12L0.2,12z M9.3,18.8c0-0.1,0-0.2,0-0.3L13.4,5c0.1-0.3,0.3-0.5,0.6-0.5c0.2,0,0.5,0,0.7,0.1
	C14.9,4.8,15,5,15.1,5.2c0,0.1,0,0.3,0,0.4l-4.1,13.3c-0.1,0.3-0.3,0.5-0.7,0.5c-0.3,0-0.5,0-0.7-0.1C9.4,19.2,9.3,19,9.3,18.8
	L9.3,18.8z M16.3,16.5c-0.2-0.2-0.3-0.5-0.3-0.8c0-0.3,0.1-0.5,0.3-0.7L21,12l-4.7-3.1C16.1,8.8,16,8.5,16,8.3
	c0-0.3,0.1-0.6,0.3-0.8c0.2-0.2,0.5-0.3,0.7-0.3c0.1,0,0.2,0,0.3,0.1l5.9,3.9c0.3,0.2,0.5,0.5,0.5,0.9c0,0.4-0.2,0.7-0.5,0.9
	l-5.9,3.9c-0.1,0.1-0.2,0.1-0.3,0.1C16.8,16.9,16.6,16.7,16.3,16.5L16.3,16.5z"/>
</svg>
